# xmcd CD database file
#
# Track frame offsets:
#	150
#	15570
#	35665
#	55745
#	76575
#	99282
#	117087
#	133477
#
# Disc length: 2026 seconds
#
# Revision: 0
# Processed by: cddbd v1.5PL3 Copyright (c) Steve Scherf et al.
# Submitted via: CDex 1.50beta8
#
DISCID=5b07e808
DTITLE=C-C-B - 僕たちNO-NO-NO
DYEAR=1900
DGENRE=J-Pop
TTITLE0=Here Comes The C-C-B
TTITLE1=Lucky Chanceをもう一度
TTITLE2=リスキー・ゲーム
TTITLE3=ジェラシー
TTITLE4=噂のカタカナ・ボーイ
TTITLE5=アニメのようなA.B.C
TTITLE6=空想Ｋｉｓｓ-2
TTITLE7=ラスト・ステップ
EXTD=
EXTT0=
EXTT1=
EXTT2=
EXTT3=
EXTT4=
EXTT5=
EXTT6=
EXTT7=
PLAYORDER=
